<?xml version="1.0" ?><svg viewBox="0 0 64 64" xmlns="http://www.w3.org/2000/svg"><defs><style>.cls-1{fill:#0072ff;}</style></defs><title/><g data-name="Layer 2" id="Layer_2"><path class="cls-1" d="M42.68,4H21.32A7.32,7.32,0,0,0,14,11.32V52.68A7.32,7.32,0,0,0,21.32,60H42.68A7.32,7.32,0,0,0,50,52.68V11.32A7.32,7.32,0,0,0,42.68,4ZM46,52.68A3.32,3.32,0,0,1,42.68,56H21.32A3.32,3.32,0,0,1,18,52.68V11.32A3.32,3.32,0,0,1,21.32,8h2a1.66,1.66,0,0,1,1.54,1l.37.92a3.24,3.24,0,0,0,3,2h7.62a3.24,3.24,0,0,0,3-2L39.18,9a1.66,1.66,0,0,1,1.54-1h2A3.32,3.32,0,0,1,46,11.32Z"/><path class="cls-1" d="M33,27.62,32,28.67l-1.26-1.25a5,5,0,0,0-7.24.19,5.18,5.18,0,0,0,.38,7.06l6.84,6.84a1.8,1.8,0,0,0,2.55,0l7-7a5,5,0,0,0-.19-7.24A5.18,5.18,0,0,0,33,27.62Z"/></g></svg>